# xmcd CD database file
#
# Track frame offsets:
#	150
#	23183
#	56223
#	73424
#	92974
#	107537
#	129770
#	149217
#	176985
#	195252
#	217806
#	236099
#
# Disc length: 3497 seconds
#
# Revision: 0
# Processed by: cddbd v1.5.2PL0 Copyright (c) Steve Scherf et al.
# Submitted via: CDex 1.70beta2
#
DISCID=b60da70c
DTITLE=Antoine Herve - Completement Stones
DYEAR=2014
DGENRE=Jazz
TTITLE0=Can't You Hear Me Knocking
TTITLE1=Honky Tonk Women
TTITLE2=Angie
TTITLE3=(I Can't Get No) Satisfaction
TTITLE4=As Tears Go By
TTITLE5=Factory Girl
TTITLE6=You Can't Always Get What You Want
TTITLE7=Wild Horses
TTITLE8=Sympathy For The Devil
TTITLE9=Backstreet Girl
TTITLE10=Ruby Tuesday
TTITLE11=Paint It Black
EXTD=YEAR: 2014
EXTT0=
EXTT1=
EXTT2=
EXTT3=
EXTT4=
EXTT5=
EXTT6=
EXTT7=
EXTT8=
EXTT9=
EXTT10=
EXTT11=
PLAYORDER=
